<svg xmlns="http://www.w3.org/2000/svg" viewBox="0 0 32 32" fill="none">
  <path d="M10 6C8.5 6 7 7 7 9v4c0 1.5-1.5 3-3 3 1.5 0 3 1.5 3 3v4c0 2 1.5 3 3 3" stroke="#06B6D4" stroke-width="2.5" stroke-linecap="round" stroke-linejoin="round"/>
  <path d="M22 6c1.5 0 3 1 3 3v4c0 1.5 1.5 3 3 3-1.5 0-3 1.5-3 3v4c0 2-1.5 3-3 3" stroke="#06B6D4" stroke-width="2.5" stroke-linecap="round" stroke-linejoin="round"/>
  <circle cx="12" cy="16" r="1.5" fill="#06B6D4"/>
  <circle cx="16" cy="16" r="1.5" fill="#06B6D4"/>
  <circle cx="20" cy="16" r="1.5" fill="#06B6D4"/>
</svg>
